<?xml version="1.0" encoding="UTF-8"?>
<svg version="1.1" xmlns="http://www.w3.org/2000/svg" width="432" height="432">
<path d="M0 0 C1.65 0 3.3 0 5 0 C5.13790631 6.34817868 4.68249025 12.24795336 3.64233398 18.50317383 C3.4975209 19.40916824 3.35270782 20.31516266 3.20350647 21.24861145 C2.72434316 24.23586414 2.23524033 27.22139844 1.74609375 30.20703125 C1.40351101 32.33068387 1.06156959 34.45444004 0.7202301 36.57829285 C-0.18331478 42.18970509 -1.09520257 47.79972979 -2.00897217 53.40948486 C-2.90975282 58.94736393 -3.80338285 64.4863947 -4.69726562 70.02539062 C-5.75591881 76.5829795 -6.81532347 83.1404421 -7.87870789 89.69726562 C-9.59435234 100.2782971 -11.3014498 110.86054786 -12.98168945 121.44726562 C-13.21882896 122.94131566 -13.21882896 122.94131566 -13.46075916 124.46554852 C-14.19950531 129.12319593 -14.93646812 133.78111843 -15.67115784 138.43940735 C-17.38244717 149.26671143 -19.18538354 160.07525552 -21.0625 170.875 C-23.21541307 183.29869442 -25.27502963 195.73419333 -27.25 208.1875 C-27.37496857 208.97002136 -27.49993713 209.75254272 -27.62869263 210.55877686 C-29.29605688 221.01693056 -30.75276422 231.48337222 -32 242 C-30.63693726 241.40239868 -30.63693726 241.40239868 -29.24633789 240.79272461 C-21.15453265 237.25891149 -12.99011414 233.9929507 -4.68994141 230.97802734 C-2.69601497 230.25306189 -0.70375479 229.52351004 1.28759766 228.79150391 C19.66025633 222.05247879 38.06533471 216.00643274 57 211 C57.83692383 210.77731445 58.67384766 210.55462891 59.53613281 210.32519531 C64.33079281 209.06862132 69.13831285 207.96421528 74 207 C74.72928711 206.85191895 75.45857422 206.70383789 76.20996094 206.55126953 C86.83631541 204.46771459 97.29879775 203.70457192 108.125 203.625 C109.25083496 203.61114258 110.37666992 203.59728516 111.53662109 203.58300781 C122.01459785 203.64221422 131.38376779 205.3472391 139 213 C143.90526046 220.20460131 142.93025903 230.05617057 141.37890625 238.30078125 C138.82686656 247.40872733 134.4527187 255.70418551 130 264 C129.51225098 264.92329102 129.51225098 264.92329102 129.01464844 265.86523438 C124.17435743 274.9746325 118.46437938 283.00564995 112 291 C111.28070313 291.92425781 110.56140625 292.84851563 109.8203125 293.80078125 C91.11566629 317.47277856 66.07232377 336.24839913 35.45703125 340.33984375 C-9.28681036 345.05311999 -48.86996049 325.1534849 -83 298 C-86.41899334 295.08618774 -89.71445459 292.06219885 -93 289 C-95.09336344 287.1579838 -97.1989764 285.3311561 -99.30859375 283.5078125 C-99.86675781 283.01023437 -100.42492187 282.51265625 -101 282 C-101.56847656 281.56429688 -102.13695313 281.12859375 -102.72265625 280.6796875 C-104.65327666 278.14095118 -104.19673073 276.13045125 -104 273 C-103.17724609 270.29370117 -103.17724609 270.29370117 -102.0234375 267.54296875 C-101.59933594 266.51107422 -101.17523438 265.47917969 -100.73828125 264.41601562 C-100.28839844 263.35060547 -99.83851562 262.28519531 -99.375 261.1875 C-96.123987 253.39390841 -93.10306323 245.57282663 -90.3298645 237.59967041 C-87.76915173 230.26817927 -84.98026321 223.03218877 -82.16616821 215.79492188 C-75.92732788 199.74156128 -69.84105782 183.63334208 -63.8125 167.5 C-57.00171758 149.28206104 -50.07231074 131.11796545 -43 113 C-40.87109964 107.54318083 -38.74551833 102.08508218 -36.625 96.625 C-36.23893082 95.63128387 -36.23893082 95.63128387 -35.84506226 94.61749268 C-33.10313532 87.55184608 -30.39773356 80.48195931 -27.9375 73.3125 C-25.0926689 65.02227052 -21.84250846 56.8991051 -18.61376953 48.75219727 C-14.41295148 38.1224677 -10.34843204 27.44331471 -6.3125 16.75 C-5.99659912 15.91311646 -5.68069824 15.07623291 -5.35522461 14.21398926 C-3.56770914 9.47690997 -1.78275926 4.73887118 0 0 Z " fill="#FFFFFF" transform="translate(208,21)"/>
<path d="M0 0 C5.79436025 3.40731483 9.16948462 7.47339817 11.375 13.875 C12.82655087 22.36189018 12.77055715 29.26815934 8.75 37 C3.48393018 43.37471609 -2.38349051 47.24280291 -10.74609375 48.08984375 C-18.08777473 48.40794085 -24.60188638 46.75396098 -30.4375 42.1875 C-34.95357733 37.99624493 -38.17326038 31.91103434 -38.86328125 25.74609375 C-39.1062862 17.77808926 -37.38259558 11.21314202 -32.25 5 C-22.89208726 -2.57545317 -11.36580208 -5.34861274 0 0 Z " fill="#FFFFFF" transform="translate(241.625,178.125)"/>
</svg>
